<svg xmlns="http://www.w3.org/2000/svg" width="294.297" height="47.555" viewBox="0 0 77.866 12.582"><g fill="#fff"><text style="line-height:1.25" x="67.566" y="88.252" font-weight="400" font-size="11.889" font-family="sans-serif" letter-spacing="0" word-spacing="0" stroke-width=".297" transform="translate(-51.136 -78.559)"><tspan x="67.566" y="88.252" style="-inkscape-font-specification:serif" font-family="serif">ДантистЪ</tspan></text><path d="M3.29 12.582C1.077 8.952-1.144 4.632.664 1.612c.898-1.554 4.31 3.35 7.352 4.494-.997.013-2.364-.459-6.126-3.21-1.527 1.18.225 5.112 1.108 7.148 1.124-2.03 2.449-2.427 3.21-2.305-2.026 1.615-2.394 3.229-2.918 4.843z"/><path d="M7.054 7.68c1.397.663 2.334 2.583 3.034 4.873 4.427-6.101 3.208-10.79 2.217-11.145-.89-.216-3.65 2.972-5.69 3.618 1.578.3 4.035-1.46 5.194-2.13.738 1.034.292 3.401-1.459 7.236-.779-1.537-1.895-2.314-3.296-2.451z"/><path d="M6.616 0c-.875.017-1.75.697-1.75 2.021C3.535 1.381 2.07-.908.488.854 2.566.446 4.741 3.597 6.755 3.597c1.908 0 3.619-2.832 6.046-2.772-1.297-1.62-3.01.53-4.435 1.138C8.366.63 7.491-.016 6.616 0zm.056.703a1.052 1.052 0 011.052 1.052 1.052 1.052 0 01-1.052 1.052A1.052 1.052 0 015.62 1.755 1.052 1.052 0 016.672.703z"/></g></svg>