<svg xmlns="http://www.w3.org/2000/svg" viewBox="-0.3 0 135.467 135.467" height="512" width="512"><g transform="matrix(5.79262 0 0 5.79262 -834 -527.527)"><circle cx="155.618" cy="102.762" r="11.693" fill="maroon"/><g fill="#fff"><path d="M152.285 109.053c-2.213-3.631-4.434-7.95-2.626-10.97.898-1.554 4.309 3.35 7.352 4.493-.998.014-2.364-.458-6.127-3.209-1.526 1.18.226 5.112 1.109 7.148 1.124-2.03 2.448-2.427 3.21-2.305-2.027 1.614-2.395 3.229-2.918 4.843z"/><path d="M156.048 104.152c1.397.662 2.335 2.582 3.034 4.872 4.428-6.102 3.208-10.79 2.218-11.145-.89-.216-3.65 2.972-5.69 3.618 1.578.3 4.035-1.46 5.194-2.13.738 1.034.292 3.4-1.46 7.235-.778-1.537-1.895-2.313-3.296-2.45z"/><path d="M155.61 96.471c-.875.016-1.75.697-1.75 2.02-1.329-.638-2.795-2.928-4.376-1.166 2.077-.408 4.252 2.743 6.265 2.742 1.908 0 3.62-2.832 6.047-2.771-1.297-1.62-3.01.53-4.435 1.137 0-1.33-.875-1.978-1.75-1.962zm.057.703a1.052 1.052 0 011.052 1.052 1.052 1.052 0 01-1.052 1.052 1.052 1.052 0 01-1.052-1.052 1.052 1.052 0 011.052-1.052z"/></g></g></svg>