<svg width="28" height="20" fill="none" xmlns="http://www.w3.org/2000/svg"><path d="M25.347 0H2.653A2.653 2.653 0 000 2.653v14.694A2.653 2.653 0 002.653 20h22.694A2.653 2.653 0 0028 17.347V2.653A2.653 2.653 0 0025.347 0z" fill="#007ECD"/><path fill-rule="evenodd" clip-rule="evenodd" d="M24.596 13.591h-1.229v-.619h1.073s.391.046.391-.213c0-.242-.585-.223-.585-.223s-.953.082-.953-.8c0-.879.861-.829.861-.829h1.322v.628h-1.064s-.368-.073-.368.191c0 .222.502.19.502.19s1.054-.076 1.054.733c0 .868-.68.946-.92.946a.839.839 0 01-.084-.004zm-6.133.004v-2.683h2.155v.623h-1.46v.413h1.423v.61h-1.423v.456h1.46v.581h-2.154zm3.698-.004h-1.23v-.619h1.078s.386.046.386-.213c0-.242-.584-.223-.584-.223s-.953.082-.953-.8c0-.879.86-.829.86-.829h1.327v.628h-1.068s-.369-.073-.369.191c0 .222.502.19.502.19s1.054-.076 1.054.733c0 .868-.679.946-.92.946a.831.831 0 01-.083-.004zm-9.315.005h-.603l-.732-.797-.737.797H8.205v-2.693h2.514l.792.855.796-.85h.53v-.005h1.676s.875-.096.875.79c0 .792-.29 1.038-1.184 1.038h-.676v.865h-.682zm-.866-1.324l.857.937v-1.87l-.857.933zm-3.08.741h1.455l.682-.74-.682-.738H8.9v.414h1.418v.61H8.9v.454zm4.628-.983h.713c.207 0 .378-.113.378-.254 0-.14-.17-.255-.378-.255h-.713v.51zm3.923 1.57v-.523s-.029-.41-.462-.41h-.671v.933h-.691v-2.688h1.676s.875-.105.875.787a.686.686 0 01-.387.627s.332.155.332.61v.664h-.672zm-1.133-1.565h.713c.208 0 .378-.113.378-.255 0-.14-.17-.254-.378-.254h-.713v.51zm-.52-2.115h.694V7.223h-.695V9.92zm-5.35-.009V7.223h2.154v.628h-1.46v.413h1.423v.61h-1.422v.455h1.459v.582h-2.155zm-1.083 0V8.055L8.5 9.911h-.567l-.87-1.847v1.847H5.7l-.24-.564H4.2l-.245.564H3.2l1.146-2.688h.972l1.05 2.47v-2.47h1.091l.76 1.67.755-1.67h1.09V9.91h-.699zm-4.871-1.25h.672L4.83 7.86l-.336.8zm18.44 1.25l-1.095-1.797v1.797h-1.355l-.243-.564h-1.262l-.24.564h-1.082s-.93-.132-.93-1.269c0-1.492 1.055-1.433 1.091-1.442l.852.023v.605l-.699.009s-.456 0-.512.587c-.006.068-.009.129-.008.187.002.908.798.626.824.618l.856-2.006h.967l1.036 2.438V7.223h.976l1.082 1.77v-1.77h.695V9.91h-.953zm-3.66-1.25h.672l-.331-.801-.341.8zm-4.49 1.25v-.523s-.027-.41-.46-.41h-.672v.933h-.691V7.223h1.676s.875-.105.875.787a.686.686 0 01-.387.628s.336.154.336.609v.664h-.677zm-1.132-1.565h.713c.208 0 .378-.113.378-.254 0-.141-.17-.255-.378-.255h-.713v.51z" fill="#fff"/></svg>