<svg width="35" height="25" viewBox="0 0 35 25" fill="none" xmlns="http://www.w3.org/2000/svg">
<path d="M31.6842 0H3.31579C1.48453 0 0 1.48453 0 3.31579V21.6842C0 23.5155 1.48453 25 3.31579 25H31.6842C33.5155 25 35 23.5155 35 21.6842V3.31579C35 1.48453 33.5155 0 31.6842 0Z" fill="#212121"/>
<path d="M18.3635 10.457C18.3635 11.4172 17.7259 11.9697 16.6015 11.9697H15.125V8.94536H16.6081C17.7259 8.94536 18.3635 9.49176 18.3635 10.457ZM21.2498 13.9504C21.2498 14.4134 21.6873 14.7147 22.3741 14.7147C23.2491 14.7147 23.9053 14.2075 23.9053 13.4924V13.0625L22.477 13.1458C21.6687 13.1961 21.2498 13.4693 21.2498 13.9494V13.9504ZM35 2.67879V22.3212C34.9997 23.0316 34.6923 23.7128 34.1453 24.2151C33.5984 24.7174 32.8566 24.9997 32.0831 25H2.91694C2.14341 24.9997 1.40164 24.7174 0.854672 24.2151C0.307702 23.7128 0.000289875 23.0316 0 22.3212V2.67879C0.000289875 1.96841 0.307702 1.2872 0.854672 0.784892C1.40164 0.28258 2.14341 0.000266208 2.91694 0H32.0831C32.8566 0.000266208 33.5984 0.28258 34.1453 0.784892C34.6923 1.2872 34.9997 1.96841 35 2.67879ZM7.76648 9.2738C8.27724 9.31298 8.78691 9.03977 9.10956 8.69325C9.42564 8.33568 9.63235 7.85657 9.57767 7.37043C9.12815 7.38751 8.56926 7.64363 8.24662 8.0012C7.9546 8.30856 7.70632 8.80474 7.76648 9.2738ZM11.449 13.4311C11.437 13.42 10.258 13.0072 10.2459 11.7567C10.2339 10.7131 11.1756 10.2109 11.2182 10.1828C10.6834 9.45761 9.85657 9.37927 9.57111 9.36219C8.82957 9.32302 8.1974 9.74689 7.84522 9.74689C7.48648 9.74689 6.95166 9.37826 6.36871 9.39032C5.98811 9.3996 5.6168 9.50028 5.29174 9.68232C4.96668 9.86435 4.69921 10.1214 4.51595 10.4279C3.71973 11.6894 4.30924 13.5526 5.0814 14.5791C5.45764 15.0864 5.91372 15.6448 6.5098 15.6227C7.07415 15.6006 7.29946 15.2883 7.97975 15.2883C8.6666 15.2883 8.86129 15.6227 9.45627 15.6177C10.0764 15.6067 10.4592 15.1105 10.842 14.6023C11.2609 14.0217 11.437 13.4642 11.4501 13.4301L11.449 13.4311ZM19.6759 10.452C19.6759 8.96746 18.5516 7.95199 16.9471 7.95199H13.8366V15.5635H15.125V12.963H16.9056C18.5341 12.963 19.6759 11.9365 19.6759 10.452ZM25.1445 11.7738C25.1445 10.675 24.1842 9.96585 22.7143 9.96585C21.3471 9.96585 20.3387 10.686 20.3016 11.6673H21.462C21.5593 11.1983 22.0329 10.8919 22.6771 10.8919C23.4668 10.8919 23.9043 11.2264 23.9043 11.8521V12.271L22.2998 12.3604C20.8047 12.4438 19.9975 13.0082 19.9975 13.9845C19.9975 14.9719 20.8298 15.6247 22.0263 15.6247C22.8346 15.6247 23.5816 15.2511 23.9218 14.6535H23.9458V15.5685H25.1369V11.7738H25.1445ZM31.3546 10.0382H30.0487L28.5361 14.536H28.5121L26.9995 10.0382H25.6444L27.8252 15.5795L27.7104 15.914C27.5157 16.4835 27.1941 16.7065 26.6232 16.7065C26.4973 16.7044 26.3715 16.6987 26.2459 16.6894V17.6045C26.3192 17.6266 26.6407 17.6326 26.7381 17.6326C27.9958 17.6326 28.5854 17.1916 29.1016 15.8578L31.3546 10.0382Z" fill="white"/>
<rect x="0.2" y="0.2" width="34.6" height="24.6" rx="2.8" stroke="black" stroke-width="0.4"/>
</svg>