<svg width="35" height="25" viewBox="0 0 35 25" fill="none" xmlns="http://www.w3.org/2000/svg">
<path d="M31.6842 0H3.31579C1.48453 0 0 1.48453 0 3.31579V21.6842C0 23.5155 1.48453 25 3.31579 25H31.6842C33.5155 25 35 23.5155 35 21.6842V3.31579C35 1.48453 33.5155 0 31.6842 0Z" fill="white"/>
<path d="M17.5939 12.8647V15.7844H16.7081V8.57397H19.0573C19.3377 8.56785 19.6165 8.61986 19.8776 8.727C20.1386 8.83414 20.3768 8.99428 20.5784 9.19819C20.782 9.38971 20.9441 9.6246 21.0537 9.88706C21.1633 10.1495 21.2179 10.4335 21.2138 10.7199C21.2197 11.0078 21.1659 11.2936 21.0562 11.5577C20.9466 11.8219 20.7836 12.0581 20.5784 12.2502C20.1677 12.6599 19.6606 12.8645 19.0573 12.8641H17.5939V12.8647ZM17.5939 9.46172V11.9787H19.0793C19.2421 11.9837 19.4042 11.9532 19.5551 11.889C19.706 11.8248 19.8424 11.7283 19.9556 11.6058C20.0683 11.4913 20.1578 11.3543 20.2189 11.203C20.2801 11.0517 20.3116 10.889 20.3116 10.7248C20.3116 10.5605 20.2801 10.3979 20.2189 10.2465C20.1578 10.0952 20.0683 9.9582 19.9556 9.84368C19.8438 9.71859 19.7079 9.61979 19.5568 9.55383C19.4057 9.48786 19.2429 9.45623 19.0793 9.46103H17.5939V9.46162V9.46172ZM23.2549 10.69C23.9095 10.69 24.4264 10.8729 24.8052 11.2388C25.1841 11.6048 25.3733 12.1064 25.373 12.7439V15.7844H24.5258V15.0998H24.4873C24.1205 15.6635 23.6327 15.9454 23.0239 15.9454C22.5041 15.9454 22.0693 15.7844 21.7194 15.4622C21.5515 15.3143 21.4173 15.1291 21.3265 14.9201C21.2357 14.7111 21.1907 14.4836 21.1946 14.2541C21.1946 13.7436 21.3791 13.3376 21.748 13.0361C22.117 12.7347 22.6096 12.5835 23.2257 12.5828C23.7517 12.5828 24.1848 12.6834 24.5252 12.8848V12.673C24.5262 12.5165 24.4939 12.3618 24.4306 12.22C24.3673 12.0783 24.2747 11.953 24.1594 11.8533C23.9251 11.6323 23.6199 11.5117 23.3044 11.5155C22.8097 11.5155 22.4182 11.7338 22.1299 12.1702L21.3498 11.6565C21.7789 11.0121 22.4138 10.69 23.2549 10.69ZM22.109 14.2743C22.1084 14.3921 22.1348 14.5084 22.1858 14.6135C22.2369 14.7185 22.3113 14.8093 22.4027 14.8782C22.5986 15.0394 22.8418 15.1247 23.091 15.1199C23.4647 15.1192 23.823 14.9637 24.0873 14.6873C24.3807 14.3985 24.5273 14.0596 24.5273 13.6706C24.2513 13.4405 23.8661 13.3255 23.3721 13.3255C23.0123 13.3255 22.7123 13.4162 22.4721 13.5976C22.2294 13.7817 22.109 14.0054 22.109 14.2742V14.2743ZM30.2363 10.851L27.2787 17.9591H26.3644L27.4619 15.472L25.5171 10.851H26.4799L27.8855 14.395H27.9048L29.2718 10.851H30.2363Z" fill="#212121"/>
<path d="M15 12.3354C15.0005 11.9798 14.971 11.6252 14.9122 11.2748H10.1011V13.2838H12.8567C12.8003 13.6047 12.6809 13.9106 12.5058 14.183C12.3307 14.4554 12.1034 14.6888 11.8377 14.869V16.173H13.4822C14.4451 15.2652 14.9999 13.9227 14.9999 12.3354H15Z" fill="#4285F4"/>
<path d="M10.1013 17.4328C11.4779 17.4328 12.6372 16.9706 13.4825 16.1736L11.838 14.8695C11.3801 15.1868 10.7907 15.3681 10.1013 15.3681C8.77071 15.3681 7.64131 14.4508 7.23731 13.215H5.54346V14.5588C5.96805 15.4227 6.61912 16.149 7.42398 16.6565C8.22883 17.164 9.15579 17.4327 10.1014 17.4328H10.1013Z" fill="#34A853"/>
<path d="M7.23743 13.215C7.02392 12.5674 7.02392 11.866 7.23743 11.2183V9.87451H5.54321C5.18602 10.6013 5 11.4034 5 12.2168C5 13.0301 5.18602 13.8322 5.54321 14.559L7.23719 13.215H7.23743Z" fill="#FBBC04"/>
<path d="M10.1013 9.06518C10.8288 9.05304 11.5317 9.33411 12.0582 9.84765L13.5143 8.35875C12.591 7.47198 11.3678 6.98516 10.1011 7.00034C9.15554 7.0004 8.22857 7.26919 7.42371 7.77671C6.61885 8.28423 5.96779 9.0105 5.54321 9.87444L7.23719 11.2183C7.64119 9.98247 8.77058 9.06518 10.1011 9.06518H10.1013Z" fill="#EA4335"/>
<rect x="0.2" y="0.2" width="34.6" height="24.6" rx="2.8" stroke="black" stroke-width="0.4"/>
</svg>