<svg width="35" height="25" viewBox="0 0 35 25" fill="none" xmlns="http://www.w3.org/2000/svg">
<path d="M31.6842 0H3.31579C1.48453 0 0 1.48453 0 3.31579V21.6842C0 23.5155 1.48453 25 3.31579 25H31.6842C33.5155 25 35 23.5155 35 21.6842V3.31579C35 1.48453 33.5155 0 31.6842 0Z" fill="#212121"/>
<path d="M20.4744 16.0721H14.5257V5.44482H20.4745L20.4744 16.0721Z" fill="#6C6BBD"/>
<path d="M14.9032 10.7587C14.9032 8.6029 15.9186 6.68258 17.4998 5.44509C16.3435 4.54016 14.8841 4 13.2982 4C9.54356 4 6.5 7.02591 6.5 10.7587C6.5 14.4915 9.54356 17.5174 13.2982 17.5174C14.8841 17.5174 16.3435 16.9772 17.4998 16.0723C15.9186 14.8348 14.9032 12.9145 14.9032 10.7587" fill="#D32011"/>
<path d="M28.5 10.7587C28.5 14.4915 25.4564 17.5174 21.7018 17.5174C20.1159 17.5174 18.6565 16.9772 17.4998 16.0723C19.0814 14.8348 20.0968 12.9145 20.0968 10.7587C20.0968 8.6029 19.0814 6.68258 17.4998 5.44509C18.6565 4.54016 20.1159 4 21.7018 4C25.4564 4 28.5 7.02591 28.5 10.7587Z" fill="#0099DF"/>
<path d="M22.4872 19.075C22.5663 19.075 22.68 19.09 22.7669 19.124L22.6459 19.4918C22.5628 19.4578 22.4798 19.4467 22.4003 19.4467C22.1436 19.4467 22.0152 19.6117 22.0152 19.9082V20.9145H21.6223V19.1201H22.0113V19.338C22.1133 19.1803 22.2607 19.075 22.4872 19.075ZM21.0357 19.4768H20.3937V20.2876C20.3937 20.4676 20.4577 20.5879 20.6544 20.5879C20.7564 20.5879 20.8847 20.554 21.0015 20.4865L21.1147 20.8204C20.9903 20.9067 20.794 20.9596 20.6241 20.9596C20.1594 20.9596 19.9974 20.7117 19.9974 20.2949V19.4768H19.6308V19.1201H19.9974V18.5757H20.3937V19.1201H21.0357V19.4768ZM16.0088 19.8596C16.0508 19.6005 16.2091 19.4239 16.4887 19.4239C16.7415 19.4239 16.904 19.5816 16.9455 19.8596H16.0088ZM17.3537 20.0173C17.3497 19.4578 17.0022 19.075 16.496 19.075C15.9674 19.075 15.5974 19.4578 15.5974 20.0173C15.5974 20.5875 15.9825 20.9592 16.5228 20.9592C16.7947 20.9592 17.0437 20.8917 17.2628 20.7079L17.0701 20.4186C16.9192 20.539 16.7264 20.6064 16.5453 20.6064C16.2924 20.6064 16.062 20.4899 16.0054 20.1673H17.3458C17.3497 20.1182 17.3536 20.0697 17.3536 20.0173H17.3537ZM19.0793 19.5782C18.9699 19.5103 18.7472 19.4239 18.5168 19.4239C18.3016 19.4239 18.1732 19.5029 18.1732 19.6345C18.1732 19.7543 18.3089 19.7882 18.4788 19.8106L18.6639 19.8368C19.0568 19.8936 19.2945 20.0585 19.2945 20.3739C19.2945 20.7156 18.9923 20.9596 18.4715 20.9596C18.1767 20.9596 17.9048 20.8844 17.6894 20.7267L17.8745 20.4225C18.0068 20.5239 18.2035 20.6103 18.4753 20.6103C18.7434 20.6103 18.8869 20.5317 18.8869 20.3925C18.8869 20.2914 18.7849 20.2348 18.5696 20.205L18.3846 20.1789C17.9804 20.1222 17.7613 19.9421 17.7613 19.6495C17.7613 19.2928 18.056 19.075 18.513 19.075C18.8 19.075 19.0606 19.1391 19.2491 19.2628L19.0792 19.5782H19.0793ZM23.9227 19.4458C23.8419 19.4458 23.7672 19.4599 23.6976 19.4879C23.6302 19.515 23.569 19.5554 23.5177 19.6065C23.4661 19.6589 23.4255 19.7209 23.3984 19.7891C23.3695 19.86 23.3552 19.9382 23.3552 20.0233C23.3552 20.1088 23.3695 20.1866 23.3984 20.2575C23.4274 20.3284 23.4672 20.3894 23.5177 20.4401C23.569 20.4913 23.6302 20.5316 23.6976 20.5587C23.7672 20.5871 23.8419 20.6008 23.9227 20.6008C24.0035 20.6008 24.0788 20.5872 24.1479 20.5587C24.2156 20.5317 24.277 20.4914 24.3286 20.4401C24.3801 20.3894 24.4199 20.3284 24.4493 20.2575C24.4782 20.1866 24.4925 20.1088 24.4925 20.0233C24.4925 19.9382 24.4782 19.86 24.4493 19.7891C24.4199 19.7182 24.3801 19.6572 24.3286 19.6065C24.2771 19.5553 24.2156 19.5149 24.148 19.4879C24.0764 19.4594 23.9999 19.4451 23.9228 19.4458H23.9227ZM23.9227 19.075C24.0628 19.075 24.1925 19.099 24.3118 19.1476C24.431 19.1957 24.5343 19.2623 24.6213 19.347C24.7089 19.4324 24.7784 19.5343 24.8258 19.6469C24.875 19.7625 24.8997 19.8879 24.8997 20.0233C24.8997 20.1586 24.875 20.2841 24.8258 20.3997C24.7784 20.5124 24.7089 20.6145 24.6212 20.7001C24.5344 20.7847 24.431 20.851 24.3118 20.8995C24.1924 20.9476 24.0628 20.9717 23.9227 20.9717C23.7826 20.9717 23.653 20.9476 23.5337 20.8995C23.4144 20.851 23.312 20.7847 23.2255 20.7001C23.1384 20.6143 23.0692 20.5122 23.0218 20.3997C22.9726 20.2841 22.9479 20.1586 22.9479 20.0233C22.9479 19.8879 22.9726 19.7625 23.0218 19.6469C23.0692 19.5346 23.1384 19.4327 23.2255 19.347C23.3139 19.2609 23.4187 19.1931 23.5337 19.1476C23.653 19.099 23.7826 19.075 23.9227 19.075ZM13.7145 20.0173C13.7145 19.7019 13.9224 19.4428 14.2621 19.4428C14.5868 19.4428 14.806 19.6908 14.806 20.0173C14.806 20.3439 14.5868 20.5913 14.2621 20.5913C13.9224 20.5913 13.7145 20.3327 13.7145 20.0173ZM15.176 20.0173V19.1201H14.7834V19.338C14.6586 19.1764 14.4701 19.075 14.2133 19.075C13.7072 19.075 13.3107 19.469 13.3107 20.0173C13.3107 20.5652 13.7072 20.9596 14.2133 20.9596C14.4701 20.9596 14.6585 20.8582 14.7834 20.6967V20.9145H15.176V20.0173ZM12.9631 20.9145V19.7882C12.9631 19.3642 12.6912 19.0789 12.2534 19.0749C12.023 19.0711 11.7847 19.1424 11.6188 19.3942C11.4943 19.1953 11.2976 19.075 11.0219 19.075C10.8295 19.075 10.6406 19.1313 10.4932 19.3414V19.1201H10.1007V20.9145H10.4971V19.9198C10.4971 19.6082 10.6708 19.4428 10.9388 19.4428C11.1995 19.4428 11.3318 19.6117 11.3318 19.9159V20.9145H11.7282V19.9198C11.7282 19.6082 11.9097 19.4428 12.1699 19.4428C12.4384 19.4428 12.5668 19.6117 12.5668 19.9159V20.9145H12.9631Z" fill="white"/>
</svg>