<svg width="28" height="20" fill="none" xmlns="http://www.w3.org/2000/svg"><path d="M25.347 0H2.653A2.653 2.653 0 000 2.653v14.694A2.653 2.653 0 002.653 20h22.694A2.653 2.653 0 0028 17.347V2.653A2.653 2.653 0 0025.347 0z" fill="#353A48"/><path fill-rule="evenodd" clip-rule="evenodd" d="M14.147 5.898a5.391 5.391 0 013.537-1.319c3.012 0 5.453 2.473 5.453 5.523s-2.441 5.522-5.453 5.522a5.391 5.391 0 01-3.537-1.32 5.39 5.39 0 01-3.536 1.32c-3.012 0-5.453-2.473-5.453-5.522 0-3.05 2.441-5.523 5.453-5.523a5.39 5.39 0 013.536 1.32z" fill="#FF5E00"/><path fill-rule="evenodd" clip-rule="evenodd" d="M14.147 5.898a5.54 5.54 0 00-1.915 4.204 5.54 5.54 0 001.915 4.203 5.39 5.39 0 01-3.536 1.319c-3.012 0-5.453-2.473-5.453-5.522 0-3.05 2.441-5.523 5.453-5.523a5.39 5.39 0 013.536 1.32z" fill="#ED0006"/><path fill-rule="evenodd" clip-rule="evenodd" d="M14.148 14.305a5.54 5.54 0 001.915-4.203 5.54 5.54 0 00-1.915-4.204 5.39 5.39 0 013.536-1.319c3.012 0 5.453 2.473 5.453 5.523s-2.441 5.522-5.453 5.522a5.39 5.39 0 01-3.537-1.32z" fill="#F9A000"/></svg>