<svg xmlns="http://www.w3.org/2000/svg" width="18" height="18" viewBox="0 0 512 512"><path d="M82.063 0a20.503 20.674 0 00-14.53 6.107l-28.83 29.07a129.559 130.638 0 00-32.39 133.416A453.417 457.194 0 0061.7 281.6a582.088 586.937 0 0073.689 90.143 577.671 582.483 0 0098.634 80.181 430.511 434.098 0 00125.026 56.504 129.56 130.64 0 00122.275-35.273l24.621-24.658v.16c.023-.019.042-.042.063-.063 8.015-8.118 7.986-21.246-.067-29.326l-91.18-92.107-.065-.06c-8.047-8.083-21.073-8.058-29.088.062l-51.66 52.91c-15.05 15.073-38.64 17.138-56.038 4.9a621.215 626.39 0 01-84.216-71.363 625.06 630.267 0 01-63.973-75.285c-12.729-17.559-10.8-41.863 4.534-57.157l53.446-53.89.062-.065c8.015-8.115 7.988-21.248-.062-29.33L96.683 6.107l-.063-.063A20.503 20.674 0 0082.063 0z" fill="#fff"/></svg>