<svg width="28" height="20" fill="none" xmlns="http://www.w3.org/2000/svg"><path d="M25.347 0H2.653A2.653 2.653 0 000 2.653v14.694A2.653 2.653 0 002.653 20h22.694A2.653 2.653 0 0028 17.347V2.653A2.653 2.653 0 0025.347 0z" fill="#224DBA"/><path fill-rule="evenodd" clip-rule="evenodd" d="M9.5 13.153H7.873L6.653 8.5c-.058-.214-.18-.404-.362-.493A5.297 5.297 0 004.8 7.513v-.179h2.621c.362 0 .633.27.678.582l.633 3.358 1.627-3.94h1.581l-2.44 5.82zm3.345 0h-1.537l1.265-5.819h1.537l-1.265 5.82zm3.253-4.207c.045-.313.317-.492.633-.492a2.863 2.863 0 011.491.268l.272-1.253a3.89 3.89 0 00-1.401-.269c-1.492 0-2.577.806-2.577 1.925 0 .85.769 1.298 1.312 1.567.587.268.813.447.767.716 0 .402-.452.582-.903.582a3.875 3.875 0 01-1.582-.359l-.271 1.254c.542.223 1.13.313 1.672.313 1.672.044 2.711-.76 2.711-1.97 0-1.521-2.124-1.61-2.124-2.282zm7.502 4.207l-1.22-5.819h-1.31a.68.68 0 00-.634.448l-2.259 5.371h1.582l.316-.85h1.943l.181.85H23.6zm-2.304-4.252l.45 2.193h-1.264l.814-2.193z" fill="#fff"/></svg>